<svg width="800" height="800" viewBox="0 0 100 100" xmlns="http://www.w3.org/2000/svg"><g stroke-width="0"/><g stroke-linecap="round" stroke-linejoin="round"/><path d="M29.82 62.58v-31A5.84 5.84 0 0 0 24 37.39v36.8A5.82 5.82 0 0 0 29.82 80h29a5.82 5.82 0 0 0 5.81-5.81H41.44c-6.39 0-11.62 0-11.62-11.61M66.25 32.9h8.57A1.09 1.09 0 0 0 76 31.83a.06.06 0 0 0 0-.06 1 1 0 0 0-.33-.8L65 20.32a1 1 0 0 0-.85-.32A1.11 1.11 0 0 0 63 21.07v8.61a3.23 3.23 0 0 0 3.25 3.22m-17.48-.01h-2.75l-.68 2.66h2.75z"/><path d="M74.36 37.74H63.05a4.87 4.87 0 0 1-4.85-4.84V21.61A1.62 1.62 0 0 0 56.6 20H40.46a4.87 4.87 0 0 0-4.84 4.84v38.71a4.87 4.87 0 0 0 4.84 4.84h30.68A4.87 4.87 0 0 0 76 63.55v-24.2a1.63 1.63 0 0 0-1.64-1.61m-33.9-.41v-.17l.33-1.23a.51.51 0 0 1 .5-.38h1.61l.68-2.66H42.2a.51.51 0 0 1-.51-.51v-.13l.36-1.25a.5.5 0 0 1 .5-.38h1.64l.7-2.65a.54.54 0 0 1 .51-.41h1.36a.51.51 0 0 1 .51.51v.16l-.63 2.42h2.78l.66-2.65a.56.56 0 0 1 .52-.41h1.34a.51.51 0 0 1 .51.51v.13l-.63 2.42h1.32a.8.8 0 0 1 .4.14l.13.09v.28l-.35 1.28a.49.49 0 0 1-.51.41H51.2l-.7 2.67h1.37a.5.5 0 0 1 .5.49v.13L52 37.41a.49.49 0 0 1-.5.41h-1.6l-.67 2.7a.49.49 0 0 1-.5.41h-1.36a.49.49 0 0 1-.51-.49v-.13l.63-2.44h-2.74l-.7 2.7a.49.49 0 0 1-.5.41h-1.41a.51.51 0 0 1-.51-.51v-.13l.63-2.47H41a.51.51 0 0 1-.52-.51Zm24.21 22.19a1.62 1.62 0 0 1-1.62 1.61h-21a1.61 1.61 0 0 1-1.62-1.61V57.9a1.61 1.61 0 0 1 1.62-1.61h21a1.62 1.62 0 0 1 1.62 1.61Zm3.21-9.68a1.61 1.61 0 0 1-1.61 1.61H42.08a1.62 1.62 0 0 1-1.62-1.61v-1.61a1.64 1.64 0 0 1 1.62-1.62h24.19a1.61 1.61 0 0 1 1.61 1.62Z"/></svg>
